<svg width="151" height="118" viewBox="0 0 151 118" fill="none" xmlns="http://www.w3.org/2000/svg">
<g clip-path="url(#clip0_425_74)">
<path fill-rule="evenodd" clip-rule="evenodd" d="M0.800049 91.8209H5.29203V102.635H17.5915V91.8209H22.0835V117.776H17.5915V106.853H5.29203V117.776H0.800049V91.8209ZM39.4097 107.556L29.1958 91.8209H34.4899L41.6557 103.338L48.9284 91.8209H54.1156L43.9551 107.448V117.776H39.4097V107.556ZM61.2813 91.8209H66.0942L73.9016 104.095L81.7091 91.8209H86.522V117.776H82.03V99.1748L73.9016 111.395H73.7412L65.7198 99.2288V117.776H61.2279V91.8209H61.2813ZM111.816 107.502L107.378 97.12L102.993 107.502H111.816ZM105.399 91.6587H109.57L120.854 117.776H116.094L113.474 111.503H101.335L98.7145 117.776H94.1156L105.399 91.6587ZM128.447 91.8209H132.618L146.362 109.773V91.8209H150.854V117.776H147.057L132.939 99.337V117.83H128.447V91.8209Z" fill="white"/>
<path fill-rule="evenodd" clip-rule="evenodd" d="M68.1263 22.9807V27.685H71.6557V21.5208H79.8375V26.4954V26.7117V39.7973H83.367V34.2278V26.8199V22.9807V17.7898V16.3839V15.8432C83.3135 14.221 83.26 10.7603 85.1317 8.05672C86.2547 6.48862 87.752 5.29903 89.3563 4.59609C90.7466 3.94722 92.1905 3.62278 93.6878 3.62278C94.1156 5.02867 94.2761 6.59677 94.1156 8.1108C93.9017 9.89519 93.26 11.6796 92.137 13.2477C90.8536 15.0321 89.3028 16.1676 87.5916 16.8705C86.7359 17.195 85.8803 17.4653 84.9712 17.6275V21.2504C86.3616 21.0341 87.645 20.7097 88.9285 20.223C91.2814 19.3038 93.3135 17.7898 95.0247 15.3565C96.522 13.2477 97.3777 10.8685 97.645 8.4893C97.9124 6.00197 97.5381 3.46056 96.5755 1.18952L96.1477 0.216218L95.0782 0.108073C92.6183 -0.108217 90.1049 0.27029 87.8589 1.29767C85.6664 2.27097 83.6878 3.83907 82.1905 5.9479C79.5702 9.57075 79.6771 13.9506 79.7306 15.8972V16.3839V17.8438H71.5488V16.3839V15.8972C71.6023 13.8965 71.7092 9.57075 69.0889 5.9479C67.5916 3.83907 65.6129 2.27097 63.4204 1.29767C61.1744 0.27029 58.6611 -0.16229 56.2012 0.108073L55.1317 0.216218L54.7039 1.18952C53.7413 3.51464 53.367 6.00197 53.6343 8.4893C53.9017 10.9226 54.7573 13.2477 56.2547 15.3565C57.9659 17.7357 60.0514 19.2497 62.3509 20.223C63.6343 20.7097 64.9178 21.0341 66.3081 21.2504V17.6275C65.399 17.4653 64.49 17.249 63.6878 16.8705C61.9766 16.1676 60.4258 15.0321 59.1424 13.2477C58.0194 11.6796 57.3777 9.89519 57.1638 8.1108C57.0033 6.59677 57.1637 5.08274 57.5916 3.62278C59.0889 3.62278 60.5327 3.94722 61.9231 4.59609C63.5274 5.3531 65.0247 6.48862 66.1477 8.05672C68.0728 10.7063 67.9659 14.221 67.9124 15.8432V16.3839V17.0868L68.1263 22.9807Z" fill="#F5A800"/>
<path fill-rule="evenodd" clip-rule="evenodd" d="M89.7306 29.2532H85.0782V32.8219H91.1745V41.095H86.2547H86.0408H73.0996V44.6638H78.6076H85.9338H89.7306H94.8643H96.2547H96.7894C98.3937 44.6097 101.816 44.5557 104.49 46.4482C106.041 47.5837 107.217 49.0978 107.966 50.7199C108.608 52.1258 108.928 53.5858 108.928 55.0998C107.485 55.5324 105.987 55.6946 104.49 55.5324C102.725 55.3161 100.961 54.6672 99.4098 53.5317C97.6451 52.234 96.5221 50.6659 95.8269 48.9355C95.506 48.0704 95.2386 47.2052 95.0782 46.286H91.4953C91.7092 47.6919 92.0301 48.9896 92.5114 50.2873C93.4205 52.6665 94.9178 54.7213 97.3242 56.4516C99.4098 57.9656 101.763 58.8308 104.116 59.1012C106.576 59.3715 109.035 58.993 111.335 58.0197L112.297 57.5871L112.404 56.5057C112.618 54.0183 112.244 51.4769 111.228 49.2059C110.265 46.9889 108.715 44.9882 106.629 43.4742C103.046 40.8247 98.7146 40.9328 96.7894 40.9869H96.3082H94.8643V32.876H96.3082H96.7894C98.7681 32.9301 103.046 33.0382 106.629 30.3887C108.715 28.8747 110.265 26.874 111.228 24.657C112.244 22.386 112.672 19.8446 112.404 17.3572L112.297 16.2758L111.335 15.8432C109.035 14.8699 106.576 14.4914 104.116 14.7617C101.709 15.0321 99.4098 15.8973 97.3242 17.4113C94.9713 19.1416 93.4739 21.2504 92.5114 23.5756C92.0301 24.8733 91.7092 26.171 91.4953 27.5769H95.0782C95.2386 26.6577 95.4525 25.7384 95.8269 24.9274C96.5221 23.197 97.6451 21.6289 99.4098 20.3312C100.961 19.1957 102.725 18.5468 104.49 18.3305C105.987 18.1683 107.485 18.3305 108.928 18.7631C108.928 20.2771 108.608 21.7371 107.966 23.143C107.217 24.7651 106.094 26.2792 104.49 27.4147C101.87 29.3613 98.3937 29.2532 96.7894 29.1991H96.2547H95.5595L89.7306 29.2532Z" fill="#F5A800"/>
<path fill-rule="evenodd" clip-rule="evenodd" d="M83.4739 51.0985V46.3942H79.9444V52.5585H71.7626V47.5838V47.3675V34.282H68.2332V39.8514V47.2594V51.0985V56.2895V57.6954V58.2361C68.2867 59.8582 68.3402 63.3189 66.4685 66.0225C65.3455 67.5906 63.8482 68.7802 62.2439 69.4831C60.8535 70.132 59.4097 70.4565 57.9124 70.4565C57.4846 68.9965 57.3241 67.4825 57.4846 65.9684C57.6985 64.184 58.3402 62.3997 59.4632 60.8316C60.7466 59.0472 62.2974 57.9116 64.0086 57.2087C64.8642 56.8843 65.7198 56.6139 66.6289 56.4517V52.8288C65.2386 53.0451 63.9551 53.3696 62.6717 53.8562C60.3188 54.7754 58.2867 56.2895 56.5755 58.7227C55.0781 60.8316 54.2225 63.2107 53.9551 65.5899C53.6878 68.0773 54.0621 70.6187 55.0247 72.8897L55.4525 73.863L56.522 73.9712C58.9819 74.1875 61.4952 73.8089 63.7412 72.7816C65.9337 71.8083 67.9124 70.2402 69.4097 68.1313C72.03 64.5085 71.923 60.1286 71.8696 58.182V57.6954V56.2354H80.0514V57.6954V58.182C79.9979 60.1827 79.891 64.5085 82.5113 68.1313C84.0086 70.2402 85.9872 71.8083 88.1797 72.7816C90.4257 73.8089 92.9391 74.2415 95.399 73.9712L96.4685 73.863L96.8963 72.8897C97.8589 70.5646 98.2332 68.0773 97.9658 65.5899C97.6985 63.1567 96.8428 60.8316 95.3455 58.7227C93.6343 56.3435 91.5487 54.8295 89.2493 53.8562C88.0193 53.3696 86.6824 53.0451 85.292 52.8288V56.4517C86.2011 56.6139 87.1102 56.8302 87.9124 57.2087C89.6236 57.9116 91.1744 59.0472 92.4578 60.8316C93.5808 62.3997 94.2225 64.184 94.4364 65.9684C94.5969 67.4825 94.4364 68.9965 94.0086 70.4565C92.5113 70.4565 91.0674 70.132 89.6771 69.4831C88.0728 68.7261 86.5755 67.5906 85.4525 66.0225C83.5273 63.373 83.6343 59.8582 83.6878 58.2361V57.6954V56.9924L83.4739 51.0985Z" fill="#F5A800"/>
<path fill-rule="evenodd" clip-rule="evenodd" d="M61.9231 44.772H66.5755V41.2032H60.4792V32.876H65.399H65.6129H78.5541V29.3072H73.0461H65.7199H61.9231H56.7894H55.399H54.8643C53.26 29.3613 49.8375 29.4154 47.1637 27.5229C45.6129 26.3873 44.4365 24.8733 43.7413 23.2511C43.0996 21.8452 42.7787 20.3853 42.7787 18.8713C44.1691 18.4387 45.7199 18.2765 47.2172 18.4387C48.9819 18.655 50.7466 19.3038 52.2974 20.4394C54.0621 21.7371 55.1851 23.3052 55.8803 25.0355C56.2012 25.9007 56.4685 26.7658 56.629 27.6851H60.2119C59.9979 26.2792 59.6771 24.9814 59.1958 23.6837C58.2867 21.3045 56.7894 19.2498 54.383 17.5194C52.2974 16.0054 49.9445 15.1403 47.5915 14.8699C45.1316 14.5995 42.6183 14.978 40.3723 15.9513L39.4097 16.3839L39.3028 17.4654C39.0889 19.9527 39.4632 22.4941 40.4792 24.7652C41.4418 26.9821 42.9926 28.9828 45.0782 30.4968C48.6611 33.1464 52.9926 33.0382 54.9177 32.9842H55.399H56.8429V41.2573H55.399H54.9177C52.9391 41.2032 48.6611 41.095 45.0782 43.7446C42.9926 45.2586 41.4418 47.2593 40.4792 49.4763C39.4632 51.7473 39.0354 54.2887 39.3028 56.7761L39.4097 57.8575L40.3723 58.2901C42.6717 59.2634 45.1316 59.6419 47.5915 59.3715C49.9979 59.1012 52.2974 58.236 54.383 56.722C56.7359 54.9917 58.2332 52.8828 59.1958 50.5577C59.6771 49.26 59.9979 47.9622 60.2119 46.5564H56.629C56.4685 47.4756 56.2546 48.3948 55.8803 49.2059C55.1851 50.9362 54.0621 52.5043 52.2974 53.8021C50.7466 54.9376 48.9819 55.5865 47.2172 55.8027C45.7199 55.965 44.2225 55.8027 42.7787 55.3702C42.7787 53.8561 43.0996 52.3962 43.7413 50.9903C44.4899 49.3681 45.6129 47.8541 47.1637 46.7186C49.784 44.772 53.26 44.8801 54.8643 44.9342H55.399H56.0942L61.9231 44.772Z" fill="#F5A800"/>
</g>
<defs>
<clipPath id="clip0_425_74">
<rect width="150" height="117.391" fill="white" transform="translate(0.800049)"/>
</clipPath>
</defs>
</svg>
