<svg width="48" height="48" viewBox="0 0 48 48" fill="none" xmlns="http://www.w3.org/2000/svg">
<circle cx="24" cy="24" r="24" fill="#F5A800"/>
<g clip-path="url(#clip0_558_341)">
<path fill-rule="evenodd" clip-rule="evenodd" d="M20.8646 18.3032L20.8602 20.2007H22.3173L22.3216 17.6963H25.6761L25.6783 19.7209V19.8107L25.6827 25.124H27.1398L27.1376 22.8628H27.1354V19.8677L27.1332 18.3032H27.131V16.1976V15.6367L27.1266 15.4067C27.1091 14.7559 27.074 13.3383 27.8584 12.2581C28.3208 11.6227 28.9233 11.1472 29.5894 10.8449C30.1481 10.5929 30.755 10.4593 31.3641 10.4549C31.5482 11.0355 31.6095 11.6534 31.5416 12.2647C31.4605 12.9921 31.1954 13.7108 30.7331 14.3484C30.2051 15.0758 29.5784 15.5359 28.8751 15.8142C28.5355 15.95 28.174 16.0465 27.7927 16.1122V17.5868C28.3558 17.5057 28.897 17.372 29.4119 17.1683C30.3672 16.7892 31.213 16.1735 31.9163 15.2051C32.532 14.3571 32.8847 13.3953 32.9921 12.4203C33.1017 11.4167 32.9483 10.3935 32.5451 9.46232L32.3742 9.06574L31.9426 9.0263C30.9325 8.93208 29.9137 9.10079 28.9912 9.5171C28.0973 9.92025 27.2931 10.5557 26.6775 11.4036C25.606 12.8782 25.652 14.6376 25.6718 15.4439L25.6761 15.6389V16.2349H22.3238L22.326 15.6389L22.3304 15.4439C22.3501 14.6376 22.3961 12.8782 21.3247 11.4036C20.709 10.5535 19.9049 9.92025 19.0109 9.5171C18.0885 9.10079 17.0675 8.92989 16.0596 9.0263L15.6258 9.06574L15.4548 9.46232C15.0517 10.3935 14.8961 11.4167 15.0079 12.4203C15.1152 13.3975 15.4702 14.3571 16.0859 15.2051C16.7892 16.1735 17.635 16.787 18.5903 17.1683C19.1052 17.372 19.6463 17.5057 20.2095 17.5868V16.1122C19.8304 16.0465 19.4667 15.95 19.1271 15.8142C18.4237 15.5337 17.7971 15.0758 17.269 14.3484C16.8067 13.7108 16.5394 12.9921 16.4605 12.2647C16.3926 11.6534 16.454 11.0355 16.638 10.4549C17.2471 10.4593 17.8519 10.5929 18.4128 10.8449C19.0811 11.1472 19.6814 11.6205 20.1437 12.2581C20.9281 13.3383 20.8931 14.7559 20.8755 15.4067L20.8712 15.6367V15.9172V18.3032H20.8646Z" fill="#333333"/>
<path fill-rule="evenodd" clip-rule="evenodd" d="M29.6946 20.8646L27.7971 20.8602V22.3173L30.3015 22.3216V25.6762L28.2769 25.6784H28.1871L22.8738 25.6827V27.1398L25.1328 27.1376V27.1354H28.1279L29.6924 27.1332V27.131H31.798H32.3567L32.5868 27.1266C33.2375 27.1091 34.6551 27.0741 35.7353 27.8585C36.3707 28.3208 36.8462 28.9233 37.1485 29.5894C37.4005 30.1481 37.5342 30.755 37.5385 31.3642C36.9579 31.546 36.34 31.6074 35.7287 31.5416C35.0013 31.4606 34.2826 31.1954 33.645 30.7331C32.9176 30.2051 32.4597 29.5784 32.1792 28.8751C32.0434 28.5355 31.947 28.174 31.8812 27.7927H30.4066C30.4877 28.3558 30.6214 28.897 30.8251 29.4119C31.2042 30.3672 31.8199 31.213 32.7883 31.9163C33.6363 32.532 34.5981 32.8869 35.5732 32.9943C36.5767 33.1039 37.5999 32.9505 38.5311 32.5473L38.9277 32.3764L38.9671 31.9448C39.0613 30.9347 38.8926 29.9159 38.4763 28.9934C38.0732 28.0995 37.4378 27.2954 36.5898 26.6797C35.1152 25.6082 33.3558 25.6542 32.5495 25.674L32.3545 25.6784H31.7585V22.326L32.3545 22.3282L32.5495 22.3326C33.3558 22.3523 35.1152 22.3983 36.5898 21.3269C37.4399 20.709 38.0732 19.9071 38.4763 19.0131C38.8926 18.0907 39.0635 17.0697 38.9671 16.0618L38.9277 15.6301L38.5311 15.4592C37.5999 15.0561 36.5767 14.9005 35.5732 15.0123C34.596 15.1196 33.6363 15.4746 32.7883 16.0903C31.8199 16.7936 31.2064 17.6393 30.8251 18.5947C30.6214 19.1096 30.4877 19.6507 30.4066 20.2138H31.8812C31.947 19.8348 32.0434 19.4711 32.1792 19.1315C32.4575 18.4281 32.9176 17.8015 33.645 17.2713C34.2826 16.8089 35.0013 16.5416 35.7287 16.4627C36.34 16.3948 36.9579 16.4562 37.5385 16.6402C37.5342 17.2493 37.4005 17.8541 37.1485 18.415C36.8462 19.0833 36.3707 19.6836 35.7353 20.1459C34.6551 20.9303 33.2375 20.8953 32.5868 20.8777L32.3567 20.8734H32.0762H29.6946V20.8646Z" fill="#333333"/>
<path fill-rule="evenodd" clip-rule="evenodd" d="M27.1355 29.6946L27.1399 27.7971H25.6828L25.6784 30.3015H22.3239L22.3217 28.277V28.1871L22.3174 22.8738H20.8603L20.8625 25.135H20.8647V28.1301L20.8669 29.6946H20.8691V31.8002V32.3611L20.8735 32.5911C20.891 33.2419 20.926 34.6595 20.1416 35.7397C19.6793 36.3751 19.0768 36.8506 18.4107 37.1529C17.852 37.4049 17.2451 37.5386 16.6359 37.5429C16.4541 36.9623 16.3927 36.3444 16.4585 35.7331C16.5395 35.0057 16.8047 34.287 17.267 33.6494C17.795 32.922 18.4217 32.4619 19.125 32.1836C19.4646 32.0478 19.8261 31.9514 20.2074 31.8856V30.411C19.6443 30.4921 19.1031 30.6258 18.5882 30.8295C17.6329 31.2086 16.7871 31.8243 16.0838 32.7927C15.4681 33.6407 15.1132 34.6025 15.0058 35.5776C14.8962 36.5811 15.0496 37.6043 15.4528 38.5355L15.6237 38.9321L16.0553 38.9715C17.0654 39.0657 18.0842 38.897 19.0067 38.4807C19.9006 38.0776 20.7047 37.4422 21.3204 36.592C22.3919 35.1174 22.3458 33.358 22.3261 32.5517L22.3217 32.3567V31.7607H25.6719L25.6697 32.3567L25.6653 32.5517C25.6456 33.358 25.5996 35.1174 26.671 36.592C27.2889 37.4422 28.093 38.0754 28.9848 38.4807C29.9072 38.897 30.9282 39.0657 31.9361 38.9715L32.3678 38.9321L32.5387 38.5355C32.9418 37.6043 33.0974 36.5811 32.9856 35.5776C32.8783 34.6004 32.5233 33.6407 31.9076 32.7927C31.2043 31.8243 30.3586 31.2108 29.4032 30.8295C28.8884 30.6258 28.3472 30.4921 27.7841 30.411V31.8856C28.1631 31.9514 28.5268 32.0478 28.8664 32.1836C29.5698 32.4641 30.1964 32.922 30.7245 33.6494C31.1868 34.287 31.4541 35.0057 31.533 35.7331C31.6009 36.3444 31.5395 36.9623 31.3555 37.5429C30.7464 37.5364 30.1416 37.4049 29.5807 37.1529C28.9125 36.8506 28.3121 36.3773 27.8498 35.7397C27.0654 34.6595 27.1026 33.2419 27.118 32.5911L27.1224 32.3611V32.0806V29.6946H27.1355Z" fill="#333333"/>
<path fill-rule="evenodd" clip-rule="evenodd" d="M18.3033 27.1354L20.2008 27.1398V25.6827L17.6964 25.6784V22.3238L19.721 22.3216H19.8108L25.1241 22.3173V20.8602L22.8629 20.8624V20.8646H19.8678L18.3033 20.8668V20.869H16.1977H15.6368L15.4068 20.8734C14.756 20.8909 13.3384 20.9259 12.2582 20.1415C11.6228 19.6792 11.1473 19.0767 10.845 18.4106C10.593 17.8519 10.4593 17.245 10.455 16.6358C11.0356 16.454 11.6535 16.3926 12.2648 16.4584C12.9922 16.5372 13.7109 16.8046 14.3485 17.2669C15.0759 17.7949 15.536 18.4238 15.8143 19.1271C15.9501 19.4667 16.0465 19.8282 16.1123 20.2095H17.5869C17.5058 19.6464 17.3721 19.1052 17.1684 18.5903C16.7893 17.635 16.1736 16.7892 15.2052 16.0859C14.3572 15.4702 13.3954 15.1174 12.4203 15.0101C11.4168 14.9005 10.3936 15.0539 9.46241 15.4571L9.06583 15.6258L9.02639 16.0574C8.93217 17.0675 9.10088 18.0863 9.51718 19.0088C9.92034 19.9027 10.5557 20.7068 11.4037 21.3225C12.8783 22.394 14.6377 22.3479 15.444 22.3282L15.639 22.3238H16.235V25.674H15.639L15.444 25.6696C14.6377 25.6499 12.8783 25.6039 11.4037 26.6753C10.5536 27.291 9.92034 28.0951 9.51718 28.989C9.10088 29.9115 8.93217 30.9325 9.02639 31.9404L9.06583 32.372L9.46241 32.5429C10.3936 32.9461 11.4168 33.1017 12.4203 32.9899C13.3976 32.8826 14.3572 32.5276 15.2052 31.9119C16.1736 31.2086 16.7871 30.3628 17.1684 29.4075C17.3721 28.8926 17.5058 28.3514 17.5869 27.7883H16.1123C16.0465 28.1674 15.9501 28.5311 15.8143 28.8707C15.5338 29.5741 15.0759 30.2007 14.3485 30.7287C13.7109 31.1911 12.9922 31.4584 12.2648 31.5372C11.6535 31.6052 11.0356 31.5438 10.455 31.3598C10.4593 30.7507 10.593 30.1459 10.845 29.585C11.1473 28.9167 11.6206 28.3164 12.2582 27.8541C13.3384 27.0697 14.756 27.1047 15.4068 27.1223L15.6368 27.1266H15.9173H18.3033V27.1354Z" fill="#333333"/>
</g>
<defs>
<clipPath id="clip0_558_341">
<rect width="30" height="30" fill="white" transform="translate(9 9)"/>
</clipPath>
</defs>
</svg>
